<svg xmlns="http://www.w3.org/2000/svg" viewBox="9 9 103 103" width="103" height="103"><path d="M19.1348 31.0148V28.2598H38.4198L60.7448 78.8948H60.9348L83.2598 28.2598H102.355V31.0148C94.0898 31.5848 93.8048 31.7748 93.8048 37.0948V85.1648C93.8048 90.4848 94.0898 90.6748 102.355 91.2448V93.9998H75.8498V91.2448C84.2098 90.6748 84.3998 90.4848 84.3998 85.1648V36.9998H84.1148L59.3198 92.8598H56.7548L32.2448 36.9998H32.0548V74.7148C32.0548 85.4498 32.1498 90.2948 41.7448 91.2448V93.9998H19.2298V91.2448C27.3998 90.3898 27.6848 85.4498 27.6848 74.7148V37.0948C27.6848 31.7748 27.4948 31.5848 19.1348 31.0148Z" fill="#fff"/></svg>
